<?xml version="1.0" encoding="UTF-8"?>
<svg viewBox="0 0 1200 700" xmlns="http://www.w3.org/2000/svg">
    <defs>
        <marker id="arrowhead" markerWidth="8" markerHeight="6" refX="7" refY="3" orient="auto">
            <path d="M 0 0, L 6 3, L 0 6, L 1.5 3 Z" fill="dimgray"/>
        </marker>
        <marker id="arrowhead-start" markerWidth="8" markerHeight="6" refX="1" refY="3" orient="auto">
            <path d="M 6 0, L 0 3, L 6 6, L 4.5 3 Z" fill="dimgray"/>
        </marker>
    </defs>
    <style>
        .text { fill: black; font-family: sans-serif; text-anchor: middle; font-size: 14px; }
        .title { fill: dimgray; font-family: sans-serif; font-size: 16px; }
        .annotation { fill: dimgray; font-family: sans-serif; font-size: 14px; text-anchor: middle; }
        .tee { fill: lightgreen; stroke: green; stroke-width: 2; rx: 4; }
        .new-tee { fill: gold; stroke: goldenrod; stroke-width: 2; rx: 4; }
        .sovereign { fill: #e6e6ff; stroke: #9999ff; stroke-width: 1.5; rx: 4; }
        .agent { fill: #ffe6e6; stroke: #ff9999; stroke-width: 1.5; rx: 4; }
        .arrow { fill: none; stroke: dimgray; stroke-width: 1.5; marker-end: url(#arrowhead); }
        .bidir { fill: none; stroke: dimgray; stroke-width: 1.5; marker-end: url(#arrowhead); marker-start: url(#arrowhead-start); }
        .proxy { fill: #e6ffe6; stroke: #99ff99; stroke-width: 1.5; rx: 4; }
        .safe { fill: #ffe6ff; stroke: #ff99ff; stroke-width: 2; rx: 4; }
        .ec2 { fill: none; stroke: #666; stroke-width: 1.5; stroke-dasharray: 4,4; rx: 4; }
        .protocol { fill: dimgray; font-family: sans-serif; font-size: 12px; text-anchor: middle; }
        .external { fill: #f0f0f0; stroke: #666; stroke-width: 1.5; rx: 4; }
    </style>

    <!-- Safe Contract (centered between EC2 instances) -->
    <rect class="safe" x="460" y="50" width="150" height="80"/>
    <text class="text" x="535" y="85">Safe Contract</text>
    <text class="annotation" x="535" y="105">(Governance)</text>
    
    <!-- EC2 Instance 1 -->
    <rect class="ec2" x="100" y="160" width="270" height="450"/>
    <text class="text" x="235" y="185">EC2 Instance</text>

    <!-- TEE 1 (Leader) -->
    <rect class="tee" x="120" y="200" width="210" height="300"/>
    <text class="text" x="225" y="230">Enclave</text>
    
    <!-- Sovereign & Agent -->
    <rect class="sovereign" x="140" y="250" width="170" height="80"/>
    <text class="text" x="225" y="280">Sovereign</text>
    <text class="text" x="225" y="300">(Rust)</text>

    <rect class="agent" x="140" y="380" width="170" height="80"/>
    <text class="text" x="225" y="410">Agent</text>
    <text class="text" x="225" y="430">(TS/JS/Python/...)</text>

    <!-- Proxy -->
    <rect class="proxy" x="150" y="530" width="150" height="50"/>
    <text class="text" x="225" y="560">HTTP Proxy</text>

    <!-- EC2 Instance 2 -->
    <rect class="ec2" x="700" y="160" width="270" height="450"/>
    <text class="text" x="835" y="185">EC2 Instance</text>

    <!-- TEE 2 (Follower) -->
    <rect class="new-tee" x="720" y="200" width="210" height="300"/>
    <text class="text" x="825" y="230">Enclave</text>
    
    <!-- Sovereign & Agent -->
    <rect class="sovereign" x="740" y="250" width="170" height="80"/>
    <text class="text" x="825" y="280">Sovereign</text>
    <text class="text" x="825" y="300">(Rust)</text>

    <rect class="agent" x="740" y="380" width="170" height="80"/>
    <text class="text" x="825" y="410">Agent</text>
    <text class="text" x="825" y="430">(TS/JS/Python/...)</text>

    <!-- Proxy -->
    <rect class="proxy" x="750" y="530" width="150" height="50"/>
    <text class="text" x="825" y="560">HTTP Proxy</text>

    <!-- External Service -->
    <rect class="external" x="1050" y="380" width="120" height="80"/>
    <text class="text" x="1110" y="420">External</text>
    <text class="text" x="1110" y="440">Service</text>

    <!-- Connections -->
    <!-- Key sync between sovereigns -->
    <path class="bidir" d="M 310,290 L 740,290"/>
    <text class="annotation" x="525" y="270">key sync protocol</text>

    <!-- gRPC within enclaves -->
    <path class="arrow" d="M 225,380 L 225,330"/>
    <text class="protocol" x="190" y="355">gRPC</text>

    <path class="arrow" d="M 825,380 L 825,330"/>
    <text class="protocol" x="790" y="355">gRPC</text>

    <!-- VSOCK connections -->
    <path class="arrow" d="M 225,530 L 225,460"/>
    <text class="protocol" x="190" y="495">VSOCK</text>
    
    <path class="arrow" d="M 825,530 L 825,460"/>
    <text class="protocol" x="790" y="495">VSOCK</text>

    <!-- Safe Contract Verification (S-curves) -->
    <path class="arrow" d="M 310,270 Q 350,270 350,200 T 460,90"/>
    <path class="arrow" d="M 740,270 Q 700,270 700,200 T 610,90"/>
    <text class="annotation" x="535" y="160">PCR Verification (0-2, 4)</text>

    <!-- External Service Connection -->
    <path class="arrow" d="M 910,420 L 1050,420"/>
    <text class="protocol" x="980" y="400">HTTPS</text>

    <!-- External Users -->
    <path class="arrow" d="M 225,610 L 225,580"/>
    <text class="annotation" x="225" y="630">End Users</text>
    
    <path class="arrow" d="M 825,610 L 825,580"/>
    <text class="annotation" x="825" y="630">End Users</text>
</svg>